<svg height='300px' width='300px' fill="#000000" xmlns="http://www.w3.org/2000/svg"
     xmlns:sketch="http://www.bohemiancoding.com/sketch/ns" viewBox="0 0 91 50"
     version="1.1" x="0px" y="0px">
    <title>rect27281</title>
    <desc>Created with Sketch.</desc>
    <g stroke="none" stroke-width="1" fill="none" fill-rule="evenodd"
       sketch:type="MSPage">
        <path d="M32.7331727,49.6811801 L24.5513545,49.6811801 L24.5513545,41.4993619 L32.7331727,41.4993619 L32.7331727,49.6811801 Z M40.9149909,49.6811801 L32.7331727,49.6811801 L32.7331727,41.4993619 L40.9149909,41.4993619 L40.9149909,49.6811801 Z M49.0968091,49.6811801 L40.9149909,49.6811801 L40.9149909,41.4993619 L49.0968091,41.4993619 L49.0968091,49.6811801 Z M57.2786273,49.6811801 L49.0968091,49.6811801 L49.0968091,41.4993619 L57.2786273,41.4993619 L57.2786273,49.6811801 Z M65.4604455,49.6811801 L57.2786273,49.6811801 L57.2786273,41.4993619 L65.4604455,41.4993619 L65.4604455,49.6811801 Z M73.6422636,49.6811801 L65.4604455,49.6811801 L65.4604455,41.4993619 L73.6422636,41.4993619 L73.6422636,49.6811801 Z M81.8240818,49.6811801 L73.6422636,49.6811801 L73.6422636,41.4993619 L81.8240818,41.4993619 L81.8240818,49.6811801 Z M81.8240818,25.1357255 L73.6422636,25.1357255 L73.6422636,16.9539074 L81.8240818,16.9539074 L81.8240818,25.1357255 Z M73.6422636,16.9539074 L65.4604455,16.9539074 L65.4604455,8.77208918 L73.6422636,8.77208918 L73.6422636,16.9539074 Z M65.4604455,16.9539074 L57.2786273,16.9539074 L57.2786273,8.77208918 L65.4604455,8.77208918 L65.4604455,16.9539074 Z M57.2786273,25.1357255 L49.0968091,25.1357255 L49.0968091,16.9539074 L57.2786273,16.9539074 L57.2786273,25.1357255 Z M49.0968091,33.3175437 L40.9149909,33.3175437 L40.9149909,25.1357255 L49.0968091,25.1357255 L49.0968091,33.3175437 Z M49.0968091,16.9539074 L40.9149909,16.9539074 L40.9149909,8.77208918 L49.0968091,8.77208918 L49.0968091,16.9539074 Z M40.9149909,8.77208918 L32.7331727,8.77208918 L32.7331727,0.590271 L40.9149909,0.590271 L40.9149909,8.77208918 Z M32.7331727,8.77208918 L24.5513545,8.77208918 L24.5513545,0.590271 L32.7331727,0.590271 L32.7331727,8.77208918 Z M24.5513545,8.77208918 L16.3695364,8.77208918 L16.3695364,0.590271 L24.5513545,0.590271 L24.5513545,8.77208918 Z M16.3695364,16.9539074 L8.18771818,16.9539074 L8.18771818,8.77208918 L16.3695364,8.77208918 L16.3695364,16.9539074 Z M8.18771818,25.1357255 L0.0059,25.1357255 L0.0059,16.9539074 L8.18771818,16.9539074 L8.18771818,25.1357255 Z M8.18771818,33.3175437 L0.0059,33.3175437 L0.0059,25.1357255 L8.18771818,25.1357255 L8.18771818,33.3175437 Z M8.18771818,41.4993619 L0.0059,41.4993619 L0.0059,33.3175437 L8.18771818,33.3175437 L8.18771818,41.4993619 Z M16.3695364,49.6811801 L8.18771818,49.6811801 L8.18771818,41.4993619 L16.3695364,41.4993619 L16.3695364,49.6811801 Z M24.5513545,49.6811801 L16.3695364,49.6811801 L16.3695364,41.4993619 L24.5513545,41.4993619 L24.5513545,49.6811801 Z M90.0059,33.3175437 L81.8240818,33.3175437 L81.8240818,25.1357255 L90.0059,25.1357255 L90.0059,33.3175437 Z M90.0059,41.4993619 L81.8240818,41.4993619 L81.8240818,33.3175437 L90.0059,33.3175437 L90.0059,41.4993619 Z"
              fill="#000000" sketch:type="MSShapeGroup"></path>
    </g>
</svg>
