<?xml version="1.0" encoding="utf-8"?>
<!-- Generator: Adobe Illustrator 19.2.1, SVG Export Plug-In . SVG Version: 6.00 Build 0)  -->
<svg version="1.1" id="layer" xmlns="http://www.w3.org/2000/svg" xmlns:xlink="http://www.w3.org/1999/xlink" x="0px" y="0px"
	 viewBox="0 0 652 652" style="enable-background:new 0 0 652 652;" xml:space="preserve">
<path d="M152,270.2v17.2h-38v18.3h31.3v15.9H114V355H94.4v-84.8H152z M197,291.4c-0.4-0.1-1.4-0.1-3-0.1c-3.8,0.2-7.4,1.4-10.8,3.8
	c-3.4,2.4-6.2,5.6-8.4,9.9v-12.7h-17.6V355h19.1v-37.6c1.7-2.9,4.5-5,8.2-6.5c3.7-1.4,7.9-2.2,12.5-2.3V291.4z M219.1,356.2
	c4.3,0,8.4-1,12.2-2.9c3.9-1.9,7.2-4.7,10-8.2l0.4,2.9c0.5,2.5,1.6,4.5,3.5,5.8c1.8,1.4,4.5,2.1,8,2.2c1.2,0,2.6-0.1,4.1-0.2
	c1.6-0.1,3.2-0.4,5.1-0.8v-16.1c-1.8-0.2-3.1-0.6-3.8-1.4c-0.7-0.8-1.1-2.1-1.1-4v-16.1c0-8.6-2.6-15.1-7.8-19.6
	c-5.2-4.5-12.5-6.7-22-6.7c-5,0-9.8,0.7-14.2,2c-4.5,1.4-8.8,3.4-12.9,6.1l5.6,11.9c3.4-2.3,6.7-4,9.8-5.2c3.1-1.2,6.4-1.7,9.8-1.7
	c8.4,0,12.5,3.6,12.5,10.9v2.9c-1.8-0.9-4-1.5-6.5-2c-2.5-0.4-5-0.7-7.6-0.7c-4,0-7.6,0.5-10.9,1.6c-3.3,1-6.1,2.5-8.5,4.3
	c-2.4,1.8-4.2,4-5.6,6.6c-1.3,2.5-2,5.4-2,8.5c0,2.9,0.6,5.5,1.7,7.9s2.6,4.5,4.5,6.3c1.9,1.8,4.2,3.2,6.9,4.2
	C213.2,355.7,216,356.2,219.1,356.2 M224.8,342.4c-2.7,0-4.9-0.7-6.7-2.2c-1.8-1.5-2.6-3.4-2.6-5.7c0-2.5,1.1-4.6,3.4-6.2
	c2.3-1.6,5.2-2.4,8.7-2.4c1.7,0,3.5,0.2,5.4,0.5c1.9,0.4,3.8,0.9,5.4,1.5v6c0,1.6-0.9,3.1-2.7,4.5c-1.3,1.2-2.9,2.1-4.8,2.9
	C228.8,342.1,226.8,342.4,224.8,342.4 M287.8,356.2c5.3,0,10-1,14.3-2.9c4.3-2,7.8-5,10.7-9.1l0.4,3.8c1,5.3,4.9,7.9,11.6,8
	c1.1,0,2.4-0.1,3.9-0.2c1.5-0.1,3.2-0.4,5.2-0.8v-16.1c-1.8-0.2-3.1-0.6-3.8-1.4c-0.7-0.8-1.1-2.1-1.1-4v-41.2h-19.1V331
	c-1.8,3.3-3.9,5.7-6.3,7c-2.4,1.4-4.9,2-7.4,2c-2.8,0-4.9-1-6.5-3c-1.5-2-2.3-5-2.3-8.8v-36h-19.1v40.1c0,7.8,1.7,13.7,5,17.7
	C276.6,354.2,281.5,356.2,287.8,356.2 M365.7,355.2c4.1,0,8-0.9,11.6-2.7c3.6-1.8,6.4-4.4,8.3-7.9v6.1c0,2.9-0.5,5.5-1.4,7.6
	c-0.9,2.1-2.2,3.8-3.8,5.1c-1.6,1.3-3.4,2.3-5.5,2.9c-2.1,0.6-4.3,1-6.6,1c-3.9,0-7.6-0.8-11-2.3c-3.5-1.6-6.4-3.6-8.7-6.3
	l-10.2,10.4c3.6,4.1,7.8,7.2,12.5,9.3c4.8,2.1,10.6,3.2,17.3,3.2c5.3,0,10.2-0.7,14.7-2.2c4.5-1.4,8.3-3.5,11.5-6.2
	c3.2-2.7,5.7-5.9,7.5-9.7c1.8-3.8,2.7-8.1,2.7-12.9v-58.4h-16.6v10.3c-2.2-3.6-5-6.4-8.6-8.4c-3.6-2-7.7-3-12.4-3
	c-4.3,0-8.2,0.8-11.8,2.5c-3.6,1.7-6.7,4-9.2,6.9s-4.5,6.3-6,10.3c-1.4,3.9-2.1,8.2-2.1,12.8c0,4.4,0.7,8.5,2,12.3
	c1.4,3.8,3.2,7.2,5.7,10c2.4,2.9,5.3,5.1,8.7,6.8C357.8,354.4,361.6,355.2,365.7,355.2 M372.4,340.1c-2.2,0-4.1-0.4-6-1.2
	c-1.8-0.8-3.4-1.9-4.7-3.3c-1.3-1.4-2.4-3.1-3.1-5.1c-0.8-2-1.1-4.1-1.1-6.4c0-2.1,0.3-4.2,1-6.3c0.7-2,1.6-3.8,2.9-5.4
	c1.2-1.6,2.7-2.8,4.4-3.7c1.7-0.9,3.6-1.4,5.7-1.4c2.9,0,5.7,1,8.4,2.9c2.6,2,4.6,4.6,5.9,7.9v13.1c-1.4,2.6-3.2,4.6-5.4,6.3
	C378,339.2,375.4,340.1,372.4,340.1 M441,356.2c4.1,0,7.7-0.5,11-1.4c3.3-1,6.1-2.3,8.4-4.1c2.3-1.7,4.1-3.9,5.3-6.4
	c1.2-2.5,1.9-5.3,1.9-8.4c0-2.6-0.4-4.9-1.3-6.8c-0.9-1.9-2.3-3.6-4.3-5.1c-2-1.5-4.6-2.8-7.8-4c-3.2-1.2-7.1-2.4-11.7-3.6
	c-2.2-0.6-4.1-1.1-5.6-1.5c-1.5-0.4-2.7-0.9-3.6-1.4c-0.9-0.5-1.6-1.1-2-1.7s-0.6-1.3-0.6-2.2c0-1.8,0.8-3.2,2.3-4
	c1.6-0.8,3.5-1.3,5.9-1.3c2.9,0,5.8,0.5,8.9,1.5c3.1,1,6.5,2.6,10.5,4.7l7.5-12.1c-4.4-2.3-8.9-4.1-13.4-5.4c-4.6-1.3-9.1-2-13.4-2
	c-3.7,0-7.2,0.5-10.3,1.6c-3.1,1-5.9,2.5-8.2,4.3c-2.3,1.8-4.1,4.1-5.4,6.7c-1.3,2.6-2,5.5-2,8.7c0,2.4,0.4,4.5,1.2,6.2
	c0.8,1.8,2.1,3.3,3.9,4.7c1.8,1.4,4.2,2.6,7.1,3.8c2.9,1.1,6.5,2.2,10.8,3.3c4.9,1.3,8.3,2.4,10.3,3.3c2,0.9,3,2.2,3,3.9
	c0,1.7-0.7,2.9-2.2,3.8c-1.5,0.9-3.6,1.3-6.4,1.3c-3.6,0-7.3-0.6-11.2-1.9c-3.9-1.3-7.9-3.1-12.1-5.5l-7.5,12.9
	c1.9,1.2,4.1,2.3,6.7,3.3c2.5,1,5.2,1.8,8,2.5c2.8,0.7,5.6,1.2,8.4,1.6C435.6,356,438.4,356.2,441,356.2 M510.1,336.5
	c-1.2,0.6-2.5,1.1-4.1,1.6c-1.5,0.5-2.9,0.7-4.3,0.7c-1.6,0-2.9-0.5-4-1.4c-1.1-0.9-1.6-2.4-1.6-4.5v-26.2H509v-14.5h-12.8v-20
	h-19.1v20h-8v14.5h8v32.7c0,3,0.5,5.6,1.4,7.8c0.9,2.1,2.2,3.9,3.8,5.2s3.4,2.3,5.6,2.9c2.1,0.6,4.4,0.9,6.7,0.9
	c3.5,0,6.9-0.5,10.3-1.4c3.3-1,6.3-2,9-3.1L510.1,336.5z M548.1,356.2c7.2,0,13.5-1.6,18.6-4.7c5.2-3.1,9-7.1,11.5-12.1l-16.2-4.5
	c-0.9,2.3-2.6,4.1-5.2,5.5c-2.6,1.4-5.3,2-8.1,2c-3.5,0-6.6-1.1-9.4-3.3c-2.7-2.2-4.3-5.4-4.6-9.6h46.4c0.2-0.8,0.3-1.7,0.4-2.8
	c0.1-1.1,0.1-2.2,0.1-3.3c0-4.3-0.7-8.4-2.2-12.3c-1.5-3.9-3.6-7.3-6.5-10.3c-2.9-3-6.4-5.4-10.5-7.1c-4.1-1.8-8.9-2.6-14.2-2.6
	c-5.3,0-10.1,0.9-14.3,2.6c-4.2,1.7-7.7,4.1-10.6,7.2c-2.9,3-5.1,6.6-6.6,10.6c-1.5,4-2.3,8.3-2.3,12.8c0,4.2,0.8,8.3,2.3,12.1
	c1.5,3.9,3.7,7.3,6.6,10.2c2.9,2.9,6.5,5.3,10.6,7C538.2,355.3,542.9,356.2,548.1,356.2 M534.4,317.7c0.4-3.9,1.8-7,4.2-9.4
	c2.4-2.3,5.5-3.5,9.3-3.5c3.7,0,6.7,1.2,9.2,3.5c2.5,2.3,3.9,5.5,4.3,9.4H534.4z M627,291.4c-0.4-0.1-1.4-0.1-3-0.1
	c-3.8,0.2-7.4,1.4-10.8,3.8c-3.4,2.4-6.2,5.6-8.4,9.9v-12.7h-17.6V355h19.1v-37.6c1.8-2.9,4.5-5,8.2-6.5c3.7-1.4,7.9-2.2,12.5-2.3
	V291.4z"/>
<path d="M83.7,271v83.2H65.8v-32.6v-0.8H65H34.5v-14.2H65h0.8v-0.8v-18.3v-0.8H65H27.8V271H83.7z M84.6,270.2H27v17.2h38v18.3H33.7
	v15.9H65V355h19.6V270.2z"/>
<path d="M83.9,354.8H65.6l-0.3-0.6l10.4-15.8l0.7,0l7.8,15.8L83.9,354.8z M66.3,354h16.9L76,339.4L66.3,354z"/>
<path d="M75.7,338.8L65,321.7l0.3-0.6l18.2-3.2l-9-12.6l0.7-0.5l9.4,13.1l-0.1,0.3l0.2,0.1l-8.1,20.4L75.7,338.8z M66,321.7l10,15.9
	l7.5-19L66,321.7z"/>
<path d="M65.2,321.7l-19.9-7.6l-10.8,7.2l-0.5-0.7l10.4-6.9l-10.4-7.1l0.5-0.7l10.8,7.3l19.9-7.4l0.6-0.1v15.7L65.2,321.7z
	 M46.4,313.6l18.5,7.1v-13.9L46.4,313.6z"/>
<path d="M75.1,305.3l-0.7,0L64.9,287l0.4-0.6l18.8,3.7l0.3,0.6L75.1,305.3z M66.1,287.4l8.7,16.8l8.7-13.4L66.1,287.4z"/>
<path d="M65.1,287.2l-14-8.4l0.1-0.8l32.9-7.7l0.4,0.7l-19,16.1L65.1,287.2z M52.4,278.6l12.8,7.7l17.5-14.8L52.4,278.6z"/>
<polygon points="27.7,286.8 27.4,286.1 49.9,278.4 27.4,271.3 27.7,270.6 51.5,278 51.5,278.8 "/>
<polygon points="65.8,321.7 65,321.3 74.4,305.1 75.1,305.5 "/>
<path d="M47.5,278.4c0-1.8,1.5-3.3,3.3-3.3c1.8,0,3.3,1.5,3.3,3.3c0,1.8-1.5,3.3-3.3,3.3C49,281.7,47.5,280.3,47.5,278.4
	 M71.8,305.1c0,1.8,1.5,3.3,3.3,3.3c1.8,0,3.3-1.5,3.3-3.3c0-1.8-1.5-3.3-3.3-3.3C73.2,301.7,71.8,303.2,71.8,305.1 M41.9,313.6
	c0,1.8,1.5,3.3,3.3,3.3c1.8,0,3.3-1.5,3.3-3.3s-1.5-3.3-3.3-3.3C43.4,310.3,41.9,311.8,41.9,313.6 M72.7,338.1
	c0,1.8,1.5,3.3,3.3,3.3c1.8,0,3.3-1.5,3.3-3.3c0-1.8-1.5-3.3-3.3-3.3C74.2,334.8,72.7,336.3,72.7,338.1"/>
</svg>
