<svg xmlns="http://www.w3.org/2000/svg" fill="none" height="38" viewBox="0 0 120 38" width="120">
    <clipPath id="a--inject-23">
        <path d="m0 .229004h120v37.5416h-120z"></path>
    </clipPath>
    <g clip-path="url(#a--inject-23)">
        <g fill="#071278">
            <path d="m105.841 17.9908.015-.0133z"></path>
            <path d="m73.0312 9.47022h-.8118c-.2867 0-.5617.1139-.7644.31662-.2027.20273-.3166.47766-.3166.76436v10.0688c-.0309 2.9628-2.3606 5.1138-5.544 5.1138h-.0133c-3.243 0-5.5285-2.2216-5.5572-5.4006v-9.782c-.0006-.2863-.1147-.56068-.3174-.76293-.2026-.20225-.4773-.31584-.7636-.31584h-.8162c-.2864.00058-.5608.11473-.763.3174-.2023.20266-.3158.47727-.3158.76357v9.9144c0 2.5017.8471 4.6019 2.4488 6.0778 1.4251 1.3061 3.4327 2.0694 5.6587 2.1466h.6618c2.2723-.0375 4.3262-.7854 5.7867-2.1046 1.6325-1.4737 2.515-3.5938 2.515-6.1265v-9.9099c-.0003-.1424-.0287-.2834-.0836-.4148-.0548-.1315-.135-.25085-.2361-.35126-.101-.10041-.2208-.17991-.3526-.23394-.1318-.05404-.2729-.08156-.4154-.08098z"></path>
            <path d="m52.0999 25.5332h-4.0262c-3.2187 0-5.4933-2.2303-5.5286-5.3983v-9.5812c-.0005-.2866-.1146-.56118-.3172-.76378s-.4772-.31668-.7638-.31726h-.8118c-.2865.00058-.5611.11466-.7637.31726s-.3167.47718-.3173.76378v9.7069c0 2.5326.867 4.6527 2.5039 6.1286 1.4605 1.3237 3.5166 2.0672 5.7911 2.1047h4.2336c.2865-.0006.5611-.1147.7637-.3173s.3167-.4772.3173-.7637v-.8097c-.0012-.2863-.1154-.5606-.3179-.7631-.2025-.2024-.4768-.3167-.7631-.3179z"></path>
            <path d="m117.335 12.1816c-.912-.9327-2.004-1.6697-3.21-2.1662-1.206-.49654-2.501-.74206-3.805-.72162-1.282-.02111-2.554.2154-3.743.69549-1.188.48013-2.268 1.19403-3.175 2.09933-.907.9054-1.623 1.9837-2.106 3.1711-.482 1.1873-.721 2.4595-.703 3.741v.0508c-.021 1.2758.216 2.5427.695 3.7252.48 1.1825 1.192 2.2563 2.096 3.1574.903.9012 1.979 1.6111 3.163 2.0877 1.183.4765 2.451.7098 3.727.6859h.112c1.272.0045 2.532-.2442 3.707-.7315s2.241-1.2035 3.137-2.1069c.895-.9034 1.602-1.976 2.079-3.1552.476-1.1792.714-2.4415.698-3.7134v-.0485c.025-2.5187-.933-4.948-2.672-6.7706zm-.403 6.8191v.053c0 3.9026-2.84 6.839-6.606 6.839-.889.0076-1.771-.1672-2.591-.5136-.819-.3465-1.559-.8572-2.174-1.5006-1.232-1.3228-1.905-3.0703-1.879-4.8778v-.0507c0-3.9026 2.839-6.839 6.603-6.839h.059c.879.0012 1.749.1803 2.557.5264.808.3462 1.537.8523 2.144 1.4878 1.235 1.3207 1.911 3.0678 1.887 4.8755z"></path>
            <path d="m93.8065 11.4342c-1.4274-1.3061-3.4327-2.06939-5.6587-2.1466h-.6619c-2.2723.0375-4.3284.7854-5.7866 2.1046-1.6392 1.4759-2.504 3.596-2.504 6.1264v9.91c0 .2863.1136.5609.3159.7636.2022.2026.4766.3168.7629.3174h.8119c.2867 0 .5616-.1139.7643-.3167.2028-.2027.3167-.4776.3167-.7643v-10.0666c.0308-2.9628 2.3605-5.1138 5.5417-5.1138h.0155c3.243 0 5.5263 2.2216 5.5572 5.4006v9.7798c-.0007.1423.027.2833.0816.4148.0545.1315.1348.2507.2361.3507.1006.1003.22.1798.3514.2339.1313.0542.2721.0819.4141.0816h.8141c.2863-.0006.5607-.1148.7629-.3174.2023-.2027.3159-.4773.3159-.7636v-9.9166c-.0022-2.5017-.8494-4.6019-2.451-6.0778z"></path>
        </g>
        <path d="m14.2496 9.27393c-2.8183-.00044-5.57351.83487-7.9171 2.40037-2.34358 1.5655-4.1703 3.7908-5.24914 6.3945-1.0788425 2.6037-1.361344 5.4688-.811779 8.2331.549566 2.7642 1.906509 5.3034 3.899229 7.2964 1.99273 1.9931 4.53172 3.3504 7.29589 3.9004 2.7642.55 5.6293.2679 8.2332-.8105s4.8294-2.9048 6.3953-5.2482c1.5658-2.3433 2.4016-5.0984 2.4016-7.9167 0-3.7788-1.501-7.4028-4.1728-10.0751-2.6718-2.6722-6.2956-4.17369-10.0744-4.17427zm0 24.47037c-2.0216-.0018-3.9974-.6029-5.67749-1.7274s-2.98904-2.7219-3.7614-4.5902c-.77235-1.8683-.97341-3.9237-.57777-5.9063s1.37022-3.8033 2.80053-5.2321 3.25213-2.4014 5.23513-2.7949 4.0382-.1902 5.9057.5842c1.8674.7743 3.4634 2.085 4.5861 3.7663s1.7217 3.6577 1.7212 5.6794c0 1.3432-.2647 2.6732-.779 3.9139-.5144 1.2408-1.2682 2.3681-2.2185 3.3173-.9503.9493-2.0783 1.7019-3.3197 2.2149-1.2413.513-2.5716.7763-3.9148.7749z"
              fill="#001e87"></path>
        <path d="m14.2496 6.26074c-2.8184-.00043-5.5737.83496-7.91733 2.40053-2.34363 1.56553-4.17035 3.79103-5.24913 6.39483-1.07876957 2.6038-1.361142 5.4691-.811397 8.2334s1.906907 5.3035 3.899857 7.2964c1.99294 1.993 4.53213 3.3501 7.2964 3.8999 2.7644.5497 5.6296.2674 8.2334-.8114 2.6039-1.0788 4.8293-2.9055 6.3949-5.2491 1.5655-2.3437 2.4009-5.099 2.4005-7.9174 0-3.7786-1.5011-7.4024-4.1729-10.0743-2.6719-2.67182-6.2957-4.17286-10.0743-4.17286zm0 24.47036c-2.0216-.0018-3.9972-.6028-5.67727-1.7272-1.68003-1.1244-2.98899-2.7217-3.7614-4.5899-.77242-1.8682-.97362-3.9234-.57816-5.9059.39546-1.9826 1.36983-3.8033 2.79992-5.2322 1.43008-1.4289 3.25171-2.4016 5.23451-2.7954 1.9829-.3937 4.038-.1908 5.9055.5833 1.8676.774 3.4637 2.0843 4.5866 3.7653 1.123 1.681 1.7223 3.6572 1.7223 5.6788 0 1.3433-.2647 2.6734-.779 3.9143s-1.2681 2.3683-2.2184 3.3177c-.9502.9494-2.0783 1.7023-3.3196 2.2155-1.2414.5133-2.5717.7769-3.915.7757z"
              fill="#2f6dda"></path>
        <path d="m14.2496 3.24463c-2.8183-.00044-5.57351.8349-7.9171 2.40038-2.34358 1.56547-4.1703 3.79077-5.24914 6.39449-1.0788425 2.6037-1.361344 5.4688-.811779 8.2331.549566 2.7642 1.906509 5.3034 3.899229 7.2964 1.99273 1.9931 4.53172 3.3504 7.29589 3.9004 2.7642.55 5.6293.2679 8.2332-.8105s4.8294-2.9048 6.3953-5.2482c1.5658-2.3433 2.4016-5.0984 2.4016-7.9167 0-3.7788-1.501-7.4028-4.1728-10.07505-2.6718-2.67221-6.2956-4.17374-10.0744-4.17432zm0 24.47037c-2.0216-.0018-3.9974-.6029-5.67749-1.7274s-2.98904-2.7219-3.7614-4.5902c-.77235-1.8683-.97341-3.9237-.57777-5.9063s1.37022-3.8033 2.80053-5.2321c1.43031-1.42876 3.25213-2.40137 5.23513-2.79487s4.0382-.19022 5.9057.58415c1.8674.77436 3.4634 2.08502 4.5861 3.76632s1.7217 3.6577 1.7212 5.6794c0 1.3432-.2647 2.6732-.779 3.9139-.5144 1.2408-1.2682 2.3681-2.2185 3.3173-.9503.9493-2.0783 1.7019-3.3197 2.2149-1.2413.513-2.5716.7763-3.9148.7749z"
              fill="#82b8f5"></path>
        <path d="m14.2496.229004c-2.8183-.000436-5.57351.834906-7.9171 2.400376-2.34358 1.56548-4.1703 3.79077-5.24914 6.39446-1.0788425 2.60366-1.361344 5.46886-.811779 8.23306.549566 2.7643 1.906509 5.3035 3.899229 7.2965 1.99273 1.993 4.53172 3.3504 7.29589 3.9004 2.7642.55 5.6293.2679 8.2332-.8105 2.6039-1.0785 4.8294-2.9048 6.3953-5.2482 1.5658-2.3433 2.4016-5.0984 2.4016-7.9167 0-3.7788-1.501-7.40286-4.1728-10.07507s-6.2956-4.173741-10.0744-4.174326zm0 24.472596c-2.0216-.0018-3.9972-.6029-5.67727-1.7273-1.68003-1.1243-2.98899-2.7216-3.7614-4.5898-.77242-1.8682-.97362-3.9235-.57816-5.906s1.36983-3.80327 2.79992-5.23213c1.43008-1.42886 3.25171-2.40164 5.23451-2.79539 1.9829-.39375 4.038-.19078 5.9055.58324 1.8676.77403 3.4637 2.08437 4.5866 3.76537 1.123 1.68101 1.7223 3.65721 1.7223 5.67881 0 1.3432-.2647 2.6733-.779 3.9143-.5143 1.2409-1.2681 2.3682-2.2184 3.3177-.9502.9494-2.0783 1.7023-3.3196 2.2155-1.2414.5132-2.5717.7768-3.915.7757z"
              fill="#fff"></path>
    </g>
</svg>