<svg height='300px' width='300px'  fill="#000000" xmlns="http://www.w3.org/2000/svg" xmlns:xlink="http://www.w3.org/1999/xlink" version="1.1" x="0px" y="0px" viewBox="0 0 100 100" enable-background="new 0 0 100 100" xml:space="preserve"><g><path d="M86.521,63.465v-3.83v-3.86h-3.83v-3.83v-3.86h-3.86v-3.86H75v-3.83h-3.86v-3.86h-3.83v-3.83H63.45v-3.86v-3.83h3.859   v-3.86v-3.83h3.83v-3.86v-3.83v-3.86h-3.83H63.45h-3.83h-3.859H51.93v3.86H48.07v-3.86h-3.86h-3.83h-3.86h-3.83h-3.86v3.86v3.83   v3.86h3.86v3.83v3.86h3.83v3.83v3.86h-3.83v3.83h-3.86v3.86H25v3.83h-3.86v3.86h-3.83v3.86v3.83h-3.86v3.86v3.83H9.62v3.86v3.83   v3.859v3.83v3.859h3.83v3.83h3.86h3.83v3.86H25h3.83h3.86v3.83h3.83h3.86h3.83h3.86h3.859h3.831h3.859h3.83h3.859v-3.83h3.83H75   h3.83v-3.86h3.86h3.83v-3.83h3.859v-3.859v-3.83v-3.859v-3.83v-3.86H86.521z M40.38,25.015v-3.86h-3.86v-3.83v-3.86h-3.83v-3.83   h3.83h3.86h3.83v3.83h3.86v3.86h3.859v-3.86h3.831v-3.83h3.859h3.83h3.859v3.83H63.45v3.86v3.83h-3.83v3.86v3.83h-3.859H51.93   H48.07h-3.86h-3.83V25.015z M86.521,71.155v3.859v3.83h-3.83v3.859h-3.86H75v3.83h-3.86h-3.83H63.45v3.86h-3.83h-3.859H51.93H48.07   h-3.86h-3.83h-3.86v-3.86h-3.83h-3.86H25v-3.83h-3.86h-3.83v-3.859h-3.86v-3.83v-3.859v-3.83h3.86v-3.86v-3.83h3.83v-3.86v-3.83H25   v-3.86h3.83v-3.86h3.86v-3.83h3.83v-3.86h3.86v-3.83h3.83h3.86h3.859h3.831h3.859v3.83h3.83v3.86h3.859v3.83h3.83v3.86H75v3.86   h3.83v3.83v3.86h3.86v3.83v3.86h3.83V71.155z"></path><polygon points="59.62,71.155 63.45,71.155 63.45,67.325 63.45,63.465 59.62,63.465 59.62,67.325  "></polygon><rect x="59.62" y="51.944" width="3.83" height="3.83"></rect><polygon points="55.761,48.084 51.93,48.084 51.93,44.225 48.07,44.225 48.07,48.084 44.21,48.084 40.38,48.084 40.38,51.944    44.21,51.944 48.07,51.944 51.93,51.944 55.761,51.944 59.62,51.944 59.62,48.084  "></polygon><polygon points="51.93,71.155 48.07,71.155 44.21,71.155 40.38,71.155 40.38,75.015 44.21,75.015 48.07,75.015 48.07,78.845    51.93,78.845 51.93,75.015 55.761,75.015 59.62,75.015 59.62,71.155 55.761,71.155  "></polygon><polygon points="44.21,63.465 48.07,63.465 51.93,63.465 55.761,63.465 59.62,63.465 59.62,59.635 55.761,59.635 51.93,59.635    48.07,59.635 44.21,59.635 40.38,59.635 40.38,63.465  "></polygon><rect x="36.52" y="67.325" width="3.86" height="3.83"></rect><polygon points="36.52,55.774 36.52,59.635 40.38,59.635 40.38,55.774 40.38,51.944 36.52,51.944  "></polygon></g></svg>