<svg height='300px' width='300px' fill="#000000" xmlns="http://www.w3.org/2000/svg" viewBox="0 0 91 91" version="1.1" x="0px" y="0px"><g stroke="none" stroke-width="1" fill="none" fill-rule="evenodd"><path d="M82.0100717,9.00461829 L90.19189,9.00461829 L90.19189,0.8228 L82.0100717,0.8228 L82.0100717,9.00461829 Z M73.8282534,9.00461829 L82.0100717,9.00461829 L82.0100717,0.8228 L73.8282534,0.8228 L73.8282534,9.00461829 Z M65.6464351,17.1864366 L73.8282534,17.1864366 L73.8282534,9.00461829 L65.6464351,9.00461829 L65.6464351,17.1864366 Z M57.4646168,17.1864366 L65.6464351,17.1864366 L65.6464351,9.00461829 L57.4646168,9.00461829 L57.4646168,17.1864366 Z M49.2827985,25.3682549 L57.4646168,25.3682549 L57.4646168,17.1864366 L49.2827985,17.1864366 L49.2827985,25.3682549 Z M41.1009802,25.3682549 L49.2827985,25.3682549 L49.2827985,17.1864366 L41.1009802,17.1864366 L41.1009802,25.3682549 Z M32.9191619,33.5500732 L41.1009802,33.5500732 L41.1009802,25.3682549 L32.9191619,25.3682549 L32.9191619,33.5500732 Z M24.7373437,33.5500732 L32.9191619,33.5500732 L32.9191619,25.3682549 L24.7373437,25.3682549 L24.7373437,33.5500732 Z M16.5555254,41.7318915 L24.7373437,41.7318915 L24.7373437,33.5500732 L16.5555254,33.5500732 L16.5555254,41.7318915 Z M8.37370707,41.7318915 L16.5555254,41.7318915 L16.5555254,33.5500732 L8.37370707,33.5500732 L8.37370707,41.7318915 Z M82.0100717,17.1864366 L90.19189,17.1864366 L90.19189,9.00461829 L82.0100717,9.00461829 L82.0100717,17.1864366 Z M82.0100717,25.3682549 L90.19189,25.3682549 L90.19189,17.1864366 L82.0100717,17.1864366 L82.0100717,25.3682549 Z M73.8282534,33.5500732 L82.0100717,33.5500732 L82.0100717,25.3682549 L73.8282534,25.3682549 L73.8282534,33.5500732 Z M73.8282534,41.7318915 L82.0100717,41.7318915 L82.0100717,33.5500732 L73.8282534,33.5500732 L73.8282534,41.7318915 Z M65.6464351,49.9137098 L73.8282534,49.9137098 L73.8282534,41.7318915 L65.6464351,41.7318915 L65.6464351,49.9137098 Z M65.6464351,58.0955281 L73.8282534,58.0955281 L73.8282534,49.9137098 L65.6464351,49.9137098 L65.6464351,58.0955281 Z M57.4646168,66.2773463 L65.6464351,66.2773463 L65.6464351,58.0955281 L57.4646168,58.0955281 L57.4646168,66.2773463 Z M57.4646168,74.4591646 L65.6464351,74.4591646 L65.6464351,66.2773463 L57.4646168,66.2773463 L57.4646168,74.4591646 Z M49.2827985,82.6409829 L57.4646168,82.6409829 L57.4646168,74.4591646 L49.2827985,74.4591646 L49.2827985,82.6409829 Z M49.2827985,90.8228012 L57.4646168,90.8228012 L57.4646168,82.6409829 L49.2827985,82.6409829 L49.2827985,90.8228012 Z M41.1009802,82.6409829 L49.2827985,82.6409829 L49.2827985,74.4591646 L41.1009802,74.4591646 L41.1009802,82.6409829 Z M41.1009802,74.4591646 L49.2827985,74.4591646 L49.2827985,66.2773463 L41.1009802,66.2773463 L41.1009802,74.4591646 Z M32.9191619,66.2773463 L41.1009802,66.2773463 L41.1009802,58.0955281 L32.9191619,58.0955281 L32.9191619,66.2773463 Z M32.9191619,58.0955281 L41.1009802,58.0955281 L41.1009802,49.9137098 L32.9191619,49.9137098 L32.9191619,58.0955281 Z M41.1009802,49.9137098 L49.2827985,49.9137098 L49.2827985,41.7318915 L41.1009802,41.7318915 L41.1009802,49.9137098 Z M49.2827985,41.7318915 L57.4646168,41.7318915 L57.4646168,33.5500732 L49.2827985,33.5500732 L49.2827985,41.7318915 Z M57.4646168,33.5500732 L65.6464351,33.5500732 L65.6464351,25.3682549 L57.4646168,25.3682549 L57.4646168,33.5500732 Z M65.6464351,25.3682549 L73.8282534,25.3682549 L73.8282534,17.1864366 L65.6464351,17.1864366 L65.6464351,25.3682549 Z M24.7373437,58.0955281 L32.9191619,58.0955281 L32.9191619,49.9137098 L24.7373437,49.9137098 L24.7373437,58.0955281 Z M16.5555254,58.0955281 L24.7373437,58.0955281 L24.7373437,49.9137098 L16.5555254,49.9137098 L16.5555254,58.0955281 Z M8.37370707,49.9137098 L16.5555254,49.9137098 L16.5555254,41.7318915 L8.37370707,41.7318915 L8.37370707,49.9137098 Z M0.19189,49.9137098 L8.37370829,49.9137098 L8.37370829,41.7318915 L0.19189,41.7318915 L0.19189,49.9137098 Z" fill="#000000"></path></g></svg>
